<?xml version="1.0" standalone="no"?>
<!DOCTYPE svg PUBLIC "-//W3C//DTD SVG 20010904//EN"
 "http://www.w3.org/TR/2001/REC-SVG-20010904/DTD/svg10.dtd">
<svg version="1.0" xmlns="http://www.w3.org/2000/svg"
 width="180.000000pt" height="180.000000pt" viewBox="0 0 180.000000 180.000000"
 preserveAspectRatio="xMidYMid meet">
<metadata>
Created by potrace 1.14, written by Peter Selinger 2001-2017
</metadata>
<g transform="translate(0.000000,180.000000) scale(0.100000,-0.100000)"
fill="#000000" stroke="none">
<path d="M772 1495 c-169 -37 -340 -171 -416 -325 -86 -178 -87 -367 0 -548
50 -105 167 -222 275 -275 179 -88 373 -88 549 0 108 54 225 171 274 275 87
181 87 365 0 546 -52 108 -168 224 -276 276 -131 63 -270 80 -406 51z m188
-436 c0 -74 2 -80 18 -73 67 29 139 7 167 -52 24 -51 17 -135 -15 -169 -44
-47 -120 -56 -162 -18 -16 15 -18 15 -18 0 0 -13 -9 -17 -40 -17 l-40 0 0 205
0 205 45 0 45 0 0 -81z m-155 -71 c31 -14 32 -28 2 -56 -16 -15 -27 -18 -37
-12 -55 35 -110 -27 -84 -95 10 -24 51 -37 76 -24 17 9 25 7 47 -16 25 -25 25
-26 7 -40 -54 -40 -156 -21 -198 38 -27 38 -30 113 -4 151 38 58 127 83 191
54z"/>
<path d="M969 909 c-28 -28 -22 -76 12 -102 43 -32 99 -2 99 54 0 60 -69 90
-111 48z"/>
</g>
</svg>
